<svg width="1492" height="890" viewBox="0 0 1492 890" fill="none" xmlns="http://www.w3.org/2000/svg">
<path d="M467.373 384.05L488.372 72.7271L216.279 451.948L172.093 599.999L216.279 558.441L467.373 384.05Z" fill="url(#paint0_linear)"/>
<path d="M344.186 467.532L255.814 397.403L216.279 451.948L130.233 600L174.419 558.442L344.186 467.532Z" fill="url(#paint1_linear)"/>
<path d="M97.6744 288.311L0 83.1167L600 425.974L532.558 592.207L97.6744 288.311Z" fill="url(#paint2_linear)"/>
<path d="M131.874 240.265L121.878 0L349.591 308.187L262.558 387.967L131.874 240.265Z" fill="url(#paint3_linear)"/>
<path d="M479.07 150.649L488.372 72.7271L548.837 142.857L479.07 150.649Z" fill="#7F7FD5"/>
<path d="M494 521V765.5H193.5C161.5 765.5 136.167 762.833 117.5 757.5C98.8333 752.167 85.1666 743.667 76.5 732C68.1667 720.333 64 704.333 64 684C64 670.333 65.5 652.833 68.5 631.5C71.8333 610.167 75.6666 589.833 80 570.5L110 572C109.667 574.333 108.5 582.667 106.5 597C101.167 636 98.5 662 98.5 675C98.5 689.333 101.333 700.5 107 708.5C113 716.5 122.667 722.333 136 726C149.667 729.333 168.667 731 193 731H306C297 713.333 292.5 685.167 292.5 646.5C292.5 612.167 296 585.667 303 567C310.333 548.333 322.333 535.167 339 527.5C356 519.833 380 516 411 516C436.333 516 459.333 517.167 480 519.5L494 521ZM330.5 645.5C330.5 687.833 336.667 716.333 349 731H455.5V551.5C432.833 549.833 416.833 549 407.5 549C386.5 549 370.5 552.167 359.5 558.5C348.5 564.833 340.833 574.833 336.5 588.5C332.5 602.167 330.5 621.167 330.5 645.5ZM807.481 765.5H744.981C742.981 807.5 735.147 838.67 721.481 859C708.147 879.33 686.981 889.5 657.981 889.5C642.647 889.5 617.481 887 582.481 882V848C613.481 852.67 637.814 855 655.481 855C667.147 855 676.481 852.83 683.481 848.5C690.814 844.5 696.647 836 700.981 823C705.314 810 707.481 790.833 707.481 765.5H633.981C597.647 765.5 573.481 754 561.481 731C549.814 708 543.981 678.167 543.981 641.5C543.981 610.5 546.981 585.333 552.981 566C558.981 546.333 569.814 531.5 585.481 521.5C601.147 511.167 622.981 506 650.981 506C664.314 506 680.314 507 698.981 509C717.981 511 733.647 513.167 745.981 515.5V731H807.481V765.5ZM582.481 640.5C582.481 667.167 586.814 689 595.481 706C604.147 722.667 621.814 731 648.481 731H707.481V544C689.481 541.667 673.814 540.5 660.481 540.5C640.147 540.5 624.314 544.333 612.981 552C601.647 559.333 593.647 570.333 588.981 585C584.647 599.333 582.481 617.833 582.481 640.5ZM1114.17 731V765.5H1061.67C1045 765.5 1028 763.5 1010.67 759.5C993.339 755.5 977.505 749.833 963.172 742.5C948.839 749.5 933.172 755.167 916.172 759.5C899.505 763.5 883.005 765.5 866.672 765.5H807.672V731H865.172C885.505 731 905.839 727.167 926.172 719.5C900.505 699.833 880.005 676.667 864.672 650C849.339 623.333 841.339 599.833 840.672 579.5L839.172 544C881.839 521.667 923.005 510.5 962.672 510.5C1002 510.5 1043.5 521.667 1087.17 544L1085.67 579.5C1085 592.5 1081.34 607.333 1074.67 624C1068 640.333 1058.17 657 1045.17 674C1032.5 691 1017.5 706 1000.17 719C1020.17 727 1040.5 731 1061.17 731H1114.17ZM878.672 563.5C878.672 590.833 886.339 616.5 901.672 640.5C917.005 664.167 937.505 684.167 963.172 700.5C988.505 684.167 1009 664 1024.67 640C1040.34 616 1048.17 590.5 1048.17 563.5C1015.17 551.167 986.839 545 963.172 545C940.172 545 912.005 551.167 878.672 563.5ZM942.172 427H980.172V469H942.172V427ZM1475.31 515.5C1479.64 534.5 1483.31 554.667 1486.31 576C1489.64 597.333 1491.31 614.167 1491.31 626.5V765.5H1398.31C1377.98 765.5 1359.48 758.5 1342.81 744.5C1330.81 758.5 1314.98 765.5 1295.31 765.5H1114.31V731H1195.31V540.5H1233.81V731H1283.31C1298.64 731 1309.64 724.5 1316.31 711.5C1323.31 698.167 1326.81 681.5 1326.81 661.5V540.5H1365.31V661C1365.31 681.333 1362.98 699 1358.31 714C1363.31 718.333 1369.64 722.333 1377.31 726C1384.98 729.333 1392.64 731 1400.31 731H1452.81V622.5C1452.81 609.833 1451.81 594 1449.81 575C1448.14 555.667 1446.14 536.333 1443.81 517L1475.31 515.5ZM1326.81 366H1364.31V406.5H1326.81V366ZM1295.31 427H1333.31V469H1295.31V427ZM1357.81 427H1395.81V469H1357.81V427Z" fill="url(#paint4_linear)"/>
<defs>
<linearGradient id="paint0_linear" x1="465.116" y1="150.649" x2="224.872" y2="674.187" gradientUnits="userSpaceOnUse">
<stop stop-color="#7F7FD5"/>
<stop offset="0.370464" stop-color="#86A8E7" stop-opacity="0.69"/>
<stop offset="1" stop-color="#91EAE4" stop-opacity="0.16"/>
</linearGradient>
<linearGradient id="paint1_linear" x1="400" y1="194.805" x2="91.6618" y2="586.896" gradientUnits="userSpaceOnUse">
<stop stop-color="#7F7FD5"/>
<stop offset="0.521988" stop-color="#86A8E7" stop-opacity="0.15"/>
<stop offset="1" stop-color="#91EAE4" stop-opacity="0.45"/>
</linearGradient>
<linearGradient id="paint2_linear" x1="-155.814" y1="-62.3378" x2="407.976" y2="322.755" gradientUnits="userSpaceOnUse">
<stop offset="0.316592" stop-color="#7F7FD5"/>
<stop offset="0.539409" stop-color="#86A8E7" stop-opacity="0.69"/>
<stop offset="0.753439" stop-color="#91EAE4"/>
<stop offset="1" stop-color="#91EAE4" stop-opacity="0"/>
</linearGradient>
<linearGradient id="paint3_linear" x1="116.553" y1="-9.27673" x2="320.802" y2="360.305" gradientUnits="userSpaceOnUse">
<stop stop-color="#7F7FD5"/>
<stop offset="0.484375" stop-color="#7F7FD5" stop-opacity="0.17"/>
<stop offset="1" stop-color="#91EAE4" stop-opacity="0.16"/>
</linearGradient>
<linearGradient id="paint4_linear" x1="947" y1="-44.5" x2="1688" y2="1008.5" gradientUnits="userSpaceOnUse">
<stop stop-color="#818BD7"/>
<stop offset="0.501172" stop-color="#88B5DD"/>
<stop offset="1" stop-color="#8FDEE3"/>
</linearGradient>
</defs>
</svg>
