<svg width="1440" height="73" viewBox="0 0 1440 73" fill="none" xmlns="http://www.w3.org/2000/svg">
<g clip-path="url(#clip0)">
<path d="M431.861 2.47858C265.802 43.732 85.6369 -87.4209 67.2859 -262.917L53.1997 -397.627C35.9685 -562.414 156.292 -693.562 321.951 -690.554L1140.49 -675.69C1306.15 -672.682 1454.41 -536.657 1471.64 -371.87L1493.05 -167.154C1507.19 -31.8822 1382.73 60.376 1249.74 13.1935C1203.46 -3.22652 1154.75 -3.23427 1112.5 13.1716L1009.68 53.097C957.685 73.285 898.981 77.228 840.728 64.445L554.246 1.57642C512.77 -7.52538 470.888 -7.21672 431.861 2.47858Z" fill="url(#paint0_linear)" fill-opacity="0.3"/>
<path d="M177.887 26.0507C14.1773 64.04 -165.246 -67.5498 -185.833 -240.704L-196.581 -331.099C-216.142 -495.625 -97.745 -624.987 67.8664 -620.036L854.237 -596.529C1001.63 -592.123 1135.23 -469.849 1152.64 -323.422L1176.15 -125.636C1190.18 -7.6511 1069.69 61.683 960.331 -1.44543C912.233 -29.2106 856.608 -32.7354 812.726 -10.7987L719.875 35.617C671.321 59.889 614.529 68.599 556.335 60.698L272.145 22.115C239.897 17.7369 207.969 19.07 177.887 26.0507Z" fill="url(#paint1_linear)" fill-opacity="0.11"/>
</g>
<defs>
<linearGradient id="paint0_linear" x1="-49.8625" y1="-306.27" x2="1489.11" y2="-121.013" gradientUnits="userSpaceOnUse">
<stop stop-color="#7F7FD5"/>
<stop offset="0.494792" stop-color="#86A8E7"/>
<stop offset="1" stop-color="#91EAE4"/>
</linearGradient>
<linearGradient id="paint1_linear" x1="-296.038" y1="-265.556" x2="1176.97" y2="-102.576" gradientUnits="userSpaceOnUse">
<stop stop-color="#7F7FD5"/>
<stop offset="0.494792" stop-color="#86A8E7"/>
<stop offset="1" stop-color="#91EAE4"/>
</linearGradient>
<clipPath id="clip0">
<rect width="1440" height="704" fill="white" transform="translate(0 -68)"/>
</clipPath>
</defs>
</svg>
